#!OML:ASF F:\VICON\USERDATA\INSTALL\Justin_Nancy\Justin_Nancy.ASF
:FULLY-SPECIFIED
:DEGREES
221
root -8.80875 16.8531 15.3676 2.83124 -46.2212 -5.09547
lowerback 5.99722 2.2453 4.91947
upperback -0.0872095 3.41753 3.26012
thorax -3.3669 1.627 0.318352
lowerneck -14.6834 -4.1745 -9.57423
upperneck 23.5111 -4.79781 4.80697
head 10.2943 -2.56618 2.66406
rclavicle -4.41302e-014 4.77083e-015
rhumerus -28.0706 -13.4506 -75.0191
rradius 41.7329
rwrist 1.12014
rhand -16.3328 12.6943
rfingers 7.12502
rthumb 9.87904 -17.0539
lclavicle -4.41302e-014 4.77083e-015
lhumerus -41.3712 19.5906 77.599
lradius 21.3424
lwrist -19.0322
lhand -11.0019 27.1681
lfingers 7.12502
lthumb 15.0186 56.6035
rfemur 15.5347 4.89463 30.3337
rtibia 31.086
rfoot -4.43933 1.83319
rtoes -8.32387
lfemur -31.2499 -5.22355 -14.6561
ltibia 29.4576
lfoot -5.21012 -1.93431
ltoes -2.63968
222
root -8.97455 16.87 15.5709 2.21732 -46.5826 -4.4808
lowerback 6.20228 2.46267 4.44362
upperback -0.134792 3.68756 3.04505
thorax -3.53885 1.76574 0.326432
lowerneck -14.5977 -4.342 -9.53664
upperneck 23.7113 -5.12101 5.01733
head 10.3809 -2.69263 2.69107
rclavicle 1.40752e-013 -1.59028e-015
rhumerus -28.5321 -14.951 -74.5999
rradius 41.1866
rwrist 1.76881
rhand -16.4944 13.0227
rfingers 7.12502
rthumb 9.72317 -16.7328
lclavicle 1.40752e-013 -1.59028e-015
lhumerus -41.1718 19.7583 77.2794
lradius 21.0028
lwrist -19.6474
lhand -10.9184 26.9857
lfingers 7.12502
lthumb 15.0991 56.415
rfemur 14.2363 5.06202 29.6247
rtibia 34.4234
rfoot -0.377619 2.02153
rtoes -6.27297
lfemur -30.6455 -5.49422 -15.1114
ltibia 30.0145
lfoot -4.10562 -2.8263
ltoes -0.354445
223
root -9.14707 16.8817 15.7766 1.01191 -46.8276 -2.98656
lowerback 6.11351 2.62362 3.39278
upperback -0.0912314 3.81428 2.71596
thorax -3.48505 1.84941 0.563502
lowerneck -14.4935 -4.4747 -9.83756
upperneck 23.7669 -5.35729 5.436
head 10.422 -2.78335 2.86089
rclavicle 1.03741e-014 0
rhumerus -28.9865 -15.5801 -74.3688
rradius 40.8848
rwrist 1.84973
rhand -16.6801 13.0067
rfingers 7.12502
rthumb 9.54397 -16.7572
lclavicle 1.03741e-014 0
lhumerus -40.9763 19.9716 77.0836
lradius 20.8648
lwrist -20.033
lhand -10.9404 27.367
lfingers 7.12502
lthumb 15.0779 56.7979
rfemur 12.7284 4.92394 28.0774
rtibia 37.8393
rfoot 3.91344 2.72945
rtoes -4.37872
lfemur -30.0342 -5.58312 -16.368
ltibia 30.7671
lfoot -3.15297 -3.54729
ltoes 0.532401
224
root -9.31729 16.8945 15.9885 0.148695 -46.9642 -1.94895
lowerback 5.88269 2.67828 2.83898
upperback -0.00317712 3.82739 2.43097
thorax -3.27991 1.86843 0.590012
lowerneck -14.5483 -4.55311 -10.0995
upperneck 23.8784 -5.49696 5.79565
head 10.5044 -2.83091 3.01546
rclavicle -7.32025e-014 4.77083e-015
rhumerus -29.335 -16.3139 -74.1555
rradius 40.3035
rwrist 2.27212
rhand -16.3952 13.1624
rfingers 7.12502
rthumb 9.81889 -16.5886
lclavicle -7.32025e-014 4.77083e-015
lhumerus -40.8088 20.3217 76.7811
lradius 20.8327
lwrist -20.4251
lhand -10.568 27.328
lfingers 7.12502
lthumb 15.4366 56.7316
rfemur 11.0616 4.672 26.8275
rtibia 41.2233
rfoot 7.8639 3.75769
rtoes -3.02759
lfemur -29.4222 -5.19239 -17.531
ltibia 31.6673
lfoot -2.82741 -3.99259
ltoes 3.25277
225
root -9.48148 16.9068 16.1928 -0.0566233 -47.2209 -1.83558
lowerback 5.91869 2.71123 2.84609
upperback -0.00838982 3.87321 2.41766
thorax -3.30375 1.89064 0.566566
lowerneck -14.3019 -4.53803 -10.3756
upperneck 23.7367 -5.46706 5.95256
head 10.4162 -2.82729 3.12433
rclavicle 7.25688e-014 -2.62396e-014
rhumerus -29.9294 -16.4617 -73.8303
rradius 40.0327
rwrist 2.19991
rhand -16.0451 13.2106
rfingers 7.12502
rthumb 10.1566 -16.5242
lclavicle 7.25688e-014 -2.62396e-014
lhumerus -40.8612 20.7762 76.5409
lradius 20.9275
lwrist -20.6761
lhand -10.1543 27.1836
lfingers 7.12502
lthumb 15.835 56.556
rfemur 9.33517 4.70497 26.4352
rtibia 44.5232
rfoot 11.2404 4.3881
rtoes 0.142302
lfemur -28.8208 -4.4337 -18.067
ltibia 32.5931
lfoot -3.20274 -4.20365
ltoes 4.07448
226
root -9.6443 16.9228 16.3878 -0.158511 -47.6692 -1.93075
lowerback 6.11429 2.80061 2.8909
upperback -0.0298086 4.00695 2.48679
thorax -3.43666 1.95453 0.590605
lowerneck -14.0498 -4.43874 -10.3904
upperneck 23.6226 -5.30714 5.80382
head 10.3078 -2.77548 3.09736
rclavicle 2.77988e-014 -2.46493e-014
rhumerus -30.5986 -16.1592 -73.6221
rradius 39.8559
rwrist 1.631
rhand -16.0777 13.2767
rfingers 7.12502
rthumb 10.1252 -16.4597
lclavicle 2.77988e-014 -2.46493e-014
lhumerus -41.0076 21.2908 76.2931
lradius 21.1332
lwrist -21.0214
lhand -10.2625 27.0755
lfingers 7.12502
lthumb 15.7309 56.4562
rfemur 7.66284 4.94151 26.2186
rtibia 47.7245
rfoot 14.586 4.63025
rtoes 4.43815
lfemur -28.147 -3.69223 -18.3361
ltibia 33.5262
lfoot -3.76329 -4.10261
ltoes 3.79611
227
root -9.8091 16.9392 16.5772 -0.867516 -48.2368 -1.30635
lowerback 6.33164 2.92507 2.38757
upperback 0.0560082 4.14142 2.40404
thorax -3.49775 2.02951 0.763264
lowerneck -14.1964 -4.377 -10.2327
upperneck 23.7089 -5.1838 5.5621
head 10.3447 -2.73078 3.00002
rclavicle 3.73529e-014 -2.94201e-014
rhumerus -30.7839 -16.8393 -73.3742
rradius 39.0075
rwrist 2.39036
rhand -16.0384 13.5475
rfingers 7.12502
rthumb 10.1631 -16.187
lclavicle 3.73529e-014 -2.94201e-014
lhumerus -40.9201 21.4894 76.2621
lradius 21.4131
lwrist -20.6966
lhand -10.2535 27.2738
lfingers 7.12502
lthumb 15.7395 56.6538
rfemur 6.07345 5.24369 25.4622
rtibia 50.8709
rfoot 17.9188 4.3848
rtoes 8.35994
lfemur -27.2489 -2.83023 -19.1082
ltibia 34.2858
lfoot -4.33177 -4.08913
ltoes 4.5307
